<svg width="185" height="12" viewBox="0 0 185 12" fill="none" xmlns="http://www.w3.org/2000/svg">
<path d="M90.2168 5.75791C58.474 6.48885 27.2415 8.39758 5.39888 11.6641C3.81634 11.967 1.40022 10.8491 0.464254 9.55303C-0.466944 8.2583 0.0736588 6.8031 1.4544 6.624C24.0452 3.24534 57.0873 1.9667 90.4473 2.0525L90.2168 5.75791ZM90.5738 0.017712C56.6351 -0.164763 23.4258 1.05213 1.24624 4.139C0.252707 4.295 0.270015 5.44057 1.38853 5.32294C23.1134 2.07659 56.3847 0.662861 90.5307 0.71147L90.5738 0.017712ZM179.341 6.99536C155.337 5.48933 122.512 5.01416 90.2168 5.75791L90.4473 2.0525C122.925 2.13635 155.704 3.51355 179.433 5.50813C179.921 5.54987 179.956 5.92386 179.93 6.29357C179.904 6.66167 179.817 7.02497 179.341 6.99536ZM90.5307 0.71147C124.384 0.759529 159.096 2.24555 184.26 4.81011C185.018 4.8858 185.176 4.38634 184.386 4.30817C159.282 1.78834 124.562 0.201201 90.5738 0.017712L90.5307 0.71147Z" fill="#4356D6"/>
</svg>
